/* XPM */
static char *_51b9e013b744446a3929330a5153a49SJEZPb56yitzodGc[] = {
/* columns rows colors chars-per-pixel */
"32 32 12 1 ",
"  c None",
". c #750000",
"X c #B20000",
"o c #DB0000",
"O c #D83A3A",
"+ c #D85050",
"@ c #D87575",
"# c #00C9D3",
"$ c #2FD3D8",
"% c gray75",
"& c #82D8D7",
"* c #E2E2E2",
/* pixels */
"                                ",
"   XX                           ",
"  XXXX           oo             ",
"  X###          oo              ",
"  XXXX          o               ",
"  XXXX          o     ooo       ",
"  X  X          oo  ooo oo      ",
"                 oooo    oo     ",
"                          o     ",
"                         oo     ",
"           ooo           oo     ",
"              ooo      ooo      ",
"                oo              ",
"         o       o              ",
"         o        o             ",
"         oo       o             ",
"     oo   oo      o             ",
"    oo      oo   o              ",
"    o     .   ooo               ",
"    o    ...                    ",
"    o   ..  ..                  ",
"    o   +oo   .                 ",
"    o+@@O oo                    ",
"    .      o                    ",
"     .     o         %%%%%%%    ",
"      .    o         *******    ",
"       .  oo         *$&$$&*    ",
"        .oo          *&$$&$*    ",
"         o           *$$&$$*    ",
"                     *******    ",
"                                ",
"                                "
};
