/* XPM */
static char *f49827ef751a4e10c55e2857025501b4yo4Q9TtT8gTQPYXt[] = {
/* columns rows colors chars-per-pixel */
"32 32 7 1 ",
"  c None",
". c black",
"X c #291B82",
"o c #5035FF",
"O c #02D9FF",
"+ c #00FFFA",
"@ c #8CFFFD",
/* pixels */
"                                ",
"           ..........           ",
"          .oooooooooo.          ",
"         .oooooooooooo.         ",
"        .oooooooooooooo.        ",
"       .oooooooooooooooo.       ",
"      .oooooooo...........      ",
"      .oooooo..+++++@@@+++..    ",
"   ...oooooo.+++++@@@@@@++++.   ",
"   .o.Xoooo.O++++++@@@@@+++++.  ",
"  ..o.Xoooo.OOO+++++++++++++O.  ",
"  .oo.Xoooo.OOOOOOOOOOOOOOOOO.  ",
"  .X.XXooooo.OOOOOOOOOOOOOOO.   ",
"  .X.XXoooooo..OOOOOOOOOOO..    ",
"  .X.XXoooooooo............     ",
" ..X.XXXoooooooooooooooooo.     ",
" .oX.XXXXooooooooooooooooo.     ",
" .XX.XXXXooooooooooooooooo.     ",
" .XX.XXXXXoooooooooooooooo.     ",
" .XX.XXXXXXooooooooooooooo.     ",
" ....XXXXXXXoooooooooooXXX.     ",
"   ..XXXXXXXXXoooXXXXXXXXX.     ",
"    .XXXXXXXXXXXXXX..XXXXX.     ",
"    .XXXXXXX........XXXXXX.     ",
"    .XXXXXXX...  ..XXXXXXX.     ",
"    .XXXXXXX.     .XXXXXXX.     ",
"    .XXXXXX.      .XXXXXXX.     ",
"    .XXXXXX.      .XXXXXXX.     ",
"    .XXXXXX.      .XXXXXXX.     ",
"    .XXXXXX.      .XXXXX...     ",
"    .XXXXX..      .......       ",
"    ........                    "
};
