/* XPM */
static char *_99172d87135495fe463748ceaa8dc85Is88hBlkWfMlclhi[] = {
/* columns rows colors chars-per-pixel */
"32 32 2 1 ",
"  c #5B5B5B",
". c gray40",
/* pixels */
"                                ",
"     .                          ",
"           .         .          ",
"                              . ",
"            .           .       ",
"  .   .                         ",
"                                ",
"      .          .              ",
"              .             .   ",
"       .             .    .     ",
"                                ",
"                                ",
"        .    .     .            ",
"    .                           ",
"                .        .      ",
"                      .         ",
"          .        .            ",
"                           .    ",
"                                ",
"       .     .    .             ",
"    .                           ",
"  .                    .        ",
"                                ",
"           .                    ",
"                     .       .  ",
"               .                ",
"  .    .                        ",
"                     .          ",
"             .                  ",
"    .                      .    ",
"                                ",
"                                "
};
