/* XPM */
static char *result[] = {
/* columns rows colors chars-per-pixel */
"32 32 25 1 ",
"  c black",
". c #010000",
"X c #000101",
"o c #010101",
"O c #020101",
"+ c #010202",
"@ c #020202",
"# c #020303",
"$ c #040202",
"% c #040303",
"& c #050404",
"* c #060505",
"= c #03040B",
"- c #05030F",
"; c #030210",
": c #FFC300",
"> c gray98",
", c #FAFAFB",
"< c #FBFBFB",
"1 c #FCFCFB",
"2 c gray99",
"3 c #FDFDFC",
"4 c #FDFDFD",
"5 c #FEFEFE",
"6 c white",
/* pixels */
"66666666666555566665466666666666",
"6666666662,*o .  XXoO>5666666666",
"6666666<2&O::::::::::$@<36666666",
"6666662$o::::::::::::::%#5666666",
"66666>O::::::::::::::::::+<66666",
"6666<$::::::::::::::::::::$>6666",
"6665+::::::::::::::::::::::O1666",
"663#::::::::::::::::::::::::$<66",
"66<%::::::::::::::::::::::::o266",
"65@::::::::::::::::::::::::::&26",
"6>$::::::::::::::::::::::::::O,6",
"4O::::::::::::::::::::::::::::*5",
"5o::::::::::::::::::::::::::::X5",
"6X:::::::::::::::::::::::::::: 5",
"6X::::::::::::::::::::::::::::.5",
"6 :::::::::::::::::::::::::::: 6",
"6 :::::::::::::::::::::::::::: 6",
"5.::::::::::::::::::::::::::::X6",
"5 ::::::::::::::::::::::::::::X6",
"5o::::::::::::::::::::::::::::o5",
"5*::::::::::::::::::::::::::::O4",
"6,O::::::::::::::::::::::::::$>6",
"62&::::::::::::::::::::::::::@56",
"662o::::::::::::::::::::::::%<66",
"66<$::::::::::::::::::::::::#366",
"6661O::::::::::::::::::::::=5666",
"6666>$::::::::::::::::::::-<6666",
"66666<+::::::::::::::::::;>66666",
"6666665#%::::::::::::::o$1666666",
"66666663<@$::::::::::O&2<6666666",
"6666666665>OoXX  . X*,2666666666",
"66666666666456666555566666666666"
};
