/* XPM */
static char *result[] = {
/* columns rows colors chars-per-pixel */
"32 32 51 1 ",
"  c black",
". c #000101",
"X c #010101",
"o c #040202",
"O c #050303",
"+ c #060505",
"@ c #02030A",
"# c #01010F",
"$ c #02020E",
"% c #A70000",
"& c #A80000",
"* c #A90000",
"= c #AA0000",
"- c #AB0000",
"; c #AB0101",
": c #AB0202",
"> c #AC0000",
", c #AC0404",
"< c #AD0404",
"1 c #AE0606",
"2 c #AF0707",
"3 c #B00909",
"4 c #B51010",
"5 c #BC1A1A",
"6 c #BD1B1B",
"7 c #BF1F1F",
"8 c #C02020",
"9 c #C92F2F",
"0 c #CA2F2F",
"q c #CB3030",
"w c #CB3131",
"e c #CC3131",
"r c #CC3232",
"t c #CC3332",
"y c #CE3434",
"u c #CE3535",
"i c #D13939",
"p c #D23A3A",
"a c #D23B3B",
"s c #D33B3B",
"d c #D53F3F",
"f c #D64141",
"g c #D84343",
"h c #F7F7F8",
"j c #FAFAF9",
"k c #FBFBFB",
"l c #FCFCFB",
"z c gray99",
"x c #FDFDFD",
"c c #FEFEFE",
"v c white",
/* pixels */
"vvvvvvvvvvvvvvvvvccczvvvvvvvvvvv",
"vvvvvvvvvvh ..X     +vkvvvvvvvvv",
"vvvvvvvvk o>***===--% Ocjvvvvvvv",
"vvvvvvl O-*==========>& Ovvvvvvv",
"vvvvvk =&==============>*.xvvvvv",
"vvvvxX=====<60affa96<====*Xkvvvv",
"vvvv.*===:7dggggggggd8:==== zvvv",
"vvjO*===1yggw53;;35qggu1==== vvv",
"vvc >==1pgi4========4iga1==&Okvv",
"vkO&==:ygt<==========<rgu:==- vv",
"vv >==7gi<============<ig7==*ohv",
"z+%==<dg4==============4gd<==> v",
"c -==6gw================wg6==*.v",
"c -==0g5================5g0==*.v",
"c ===ag3================3ga==*Xv",
"v ===fg;================;gf=== v",
"v ===fg;================;gf=== v",
"vX*==ag3================3ga=== c",
"v.*==0g5================5g0==- c",
"v.*==6gq================qg6==- c",
"v >==<dg4==============4gd<==%+z",
"vho*==8gi<============,ig8==> vv",
"vv -==:ugr<==========,egu:==&Okv",
"vvkO&==1agi4========4igs2==> cvv",
"vvv ====1uggw53;;35qggu2===*Ojvv",
"vvvl#====:7dggggggggd8:===*.vvvv",
"vvvvk$*====<60affa06<=====Xxvvvv",
"vvvvvx@*>==============&= kvvvvv",
"vvvvvvvO &>==========*-O lvvvvvv",
"vvvvvvvjcO %--===***>o kvvvvvvvv",
"vvvvvvvvvkv+     X.. hvvvvvvvvvv",
"vvvvvvvvvvvzcccvvvvvvvvvvvvvvvvv"
};
