/* XPM */
static char *result[] = {
/* columns rows colors chars-per-pixel */
"32 32 30 1 ",
"  c black",
". c #000101",
"X c #010101",
"o c #040202",
"O c #050303",
"+ c #060505",
"@ c #02030A",
"# c #01010F",
"$ c #02020E",
"% c #A70000",
"& c #A80000",
"* c #A90000",
"= c #AA0000",
"- c #AB0000",
"; c #AB0101",
": c #AB0202",
"> c #AC0000",
", c #AC0404",
"< c #AD0404",
"1 c #AE0606",
"2 c #AF0707",
"3 c #B00909",
"4 c #F7F7F8",
"5 c #FAFAF9",
"6 c #FBFBFB",
"7 c #FCFCFB",
"8 c gray99",
"9 c #FDFDFD",
"0 c #FEFEFE",
"q c white",
/* pixels */
"qqqqqqqqqqqqqqqqq0008qqqqqqqqqqq",
"qqqqqqqqqq4 ..X     +q6qqqqqqqqq",
"qqqqqqqq6 o>***===--% O05qqqqqqq",
"qqqqqq7 O-*==========>& Oqqqqqqq",
"qqqqq6 =&==============>*.9qqqqq",
"qqqq9X=====<=============*X6qqqq",
"qqqq.*================:==== 8qqq",
"qq5O*===1=================== qqq",
"qq0 >==1================1==&O6qq",
"q6O&==:===<=================- qq",
"qq >========================*o4q",
"8+%==<=======================> q",
"0 -==========================*.q",
"0 -==========================*.q",
"0 ===========================*Xq",
"q ============================ q",
"q ============================ q",
"qX*=========================== 0",
"q.*==========================- 0",
"q.*==========================- 0",
"q >=======================<==%+8",
"q4o*==================,=====> qq",
"qq -==:==================:==&O6q",
"qq6O&===================2==> 0qq",
"qqq ==========3=;3=====2===*O5qq",
"qqq7#====:================*.qqqq",
"qqqq6$*===================X9qqqq",
"qqqqq9@*>==============&= 6qqqqq",
"qqqqqqqO &>==========*-O 7qqqqqq",
"qqqqqqq50O %--===***>o 6qqqqqqqq",
"qqqqqqqqq6q+     X.. 4qqqqqqqqqq",
"qqqqqqqqqqq8000qqqqqqqqqqqqqqqqq"
};
