/* XPM */
static char *result[] = {
/* columns rows colors chars-per-pixel */
"32 32 42 1 ",
"  c black",
". c #000101",
"X c #010101",
"o c #040202",
"O c #050303",
"+ c #060505",
"@ c #02030A",
"# c #01010F",
"$ c #02020E",
"% c #A70000",
"& c #A80000",
"* c #A90000",
"= c #AA0000",
"- c #AB0000",
"; c #AB0101",
": c #AB0202",
"> c #AC0000",
", c #AC0404",
"< c #AD0404",
"1 c #AE0606",
"2 c #AF0707",
"3 c #B00909",
"4 c #B51010",
"5 c #BC1A1A",
"6 c #BD1B1B",
"7 c #C02020",
"8 c #C92F2F",
"9 c #CB3030",
"0 c #CE3535",
"q c #D13939",
"w c #D23B3B",
"e c #D53F3F",
"r c #D64141",
"t c #D84343",
"y c #F7F7F8",
"u c #FAFAF9",
"i c #FBFBFB",
"p c #FCFCFB",
"a c gray99",
"s c #FDFDFD",
"d c #FEFEFE",
"f c white",
/* pixels */
"fffffffffffffffffdddafffffffffff",
"ffffffffffy ..X     +fifffffffff",
"ffffffffi o>***===--% Odufffffff",
"ffffffp O-*==========>& Offfffff",
"fffffi =&==============>*.sfffff",
"ffffsX=====<===rrw86<====*Xiffff",
"ffff.*=========ttttte7:==== afff",
"ffuO*===1=====3;;359tt01==== fff",
"ffd >==1============4qt=1==&Oiff",
"fiO&==:===<==========<======- ff",
"ff >========================*oyf",
"a+%==<=======================> f",
"d -==========================*.f",
"d -==========================*.f",
"d ===========================*Xf",
"f ============================ f",
"f ============================ f",
"fX*=========================== d",
"f.*==========================- d",
"f.*==========================- d",
"f >=======================<==%+a",
"fyo*==================,=====> ff",
"ff -==:==================:==&Oif",
"ffiO&===================2==> dff",
"fff ==========3=;3=====2===*Ouff",
"fffp#====:================*.ffff",
"ffffi$*===================Xsffff",
"fffffs@*>==============&= ifffff",
"fffffffO &>==========*-O pffffff",
"fffffffudO %--===***>o iffffffff",
"fffffffffif+     X.. yffffffffff",
"fffffffffffadddfffffffffffffffff"
};
