/* XPM */
static char *e01a1cfed2f343bbe5281dc1b8b9fa590i9azt8Z1PH30sRI[] = {
/* columns rows colors chars-per-pixel */
"32 32 12 1 ",
"  c None",
". c black",
"X c #230D00",
"o c gray13",
"O c #562100",
"+ c gray25",
"@ c #BC1818",
"# c #FF2121",
"$ c #F46B6B",
"% c #02D9FF",
"& c #00FFFA",
"* c #8CFFFD",
/* pixels */
"                                ",
"           ..........           ",
"          .OOOOOOOOOO.          ",
"         .OOOOOOOOOOOO.         ",
"        .OOOOOOOOOOOOOO.        ",
"       .OOOOOOOOOOOOOOOO.       ",
"      .OOOOOOOO...........      ",
"      .OOOOOO..&&&&&***&&&..    ",
"   ...OOOOOO.&&&&&******&&&&.   ",
"   .O.XOOOO.%&&&&&&*****&&&&&.  ",
"  ..O.XOOOO.%%%&&&&&&&&&&&&&%.  ",
"  .OO.XOOOO.%%%%%%%%%%%%%%%%%.  ",
"  .X.+XOOOOO.%%%%%%%%%%%%%%%.   ",
"  .X.o++OOOOO..%%%%%%%%%%%..    ",
"  .X.o+++++OOOO............     ",
" ..X.oo+++++++OOOOO#O+++++.     ",
" .OX.ooo++++++++++#$#++++o.     ",
" .XX.ooo+++++++++++#+++++o.     ",
" .XX.oooo+++++++++###+++oo.     ",
" .XX.ooooo++++++++@##+++oo.     ",
" ....ooooooo++++++@@@++ooo.     ",
"   ..oooooooooo++++@++oooo.     ",
"    .oooooooooooooo..ooooo.     ",
"    .oooooooo.......oooooo.     ",
"    .ooooooo...  ..ooooooo.     ",
"    .ooooooo.     .ooooooo.     ",
"    .oooooo.      .ooooooo.     ",
"    .oooooo.      .ooooooo.     ",
"    .oooooo.      .ooooooo.     ",
"    .oooooo.      .ooooo...     ",
"    .ooooo..      .......       ",
"    ........                    "
};
