/* XPM */
static char *result[] = {
/* columns rows colors chars-per-pixel */
"32 32 50 1 ",
"  c black",
". c #000101",
"X c #010101",
"o c #040202",
"O c #050303",
"+ c #060505",
"@ c #02030A",
"# c #01010F",
"$ c #02020E",
"% c #A70000",
"& c #A80000",
"* c #A90000",
"= c #AA0000",
"- c #AB0000",
"; c #AB0101",
": c #AB0202",
"> c #AC0000",
", c #AC0404",
"< c #AD0404",
"1 c #AE0606",
"2 c #AF0707",
"3 c #B00909",
"4 c #B51010",
"5 c #BC1A1A",
"6 c #BD1B1B",
"7 c #BF1F1F",
"8 c #C02020",
"9 c #CA2F2F",
"0 c #CB3030",
"q c #CB3131",
"w c #CC3131",
"e c #CC3232",
"r c #CC3332",
"t c #CE3434",
"y c #CE3535",
"u c #D13939",
"i c #D23A3A",
"p c #D23B3B",
"a c #D33B3B",
"s c #D53F3F",
"d c #D64141",
"f c #D84343",
"g c #F7F7F8",
"h c #FAFAF9",
"j c #FBFBFB",
"k c #FCFCFB",
"l c gray99",
"z c #FDFDFD",
"x c #FEFEFE",
"c c white",
/* pixels */
"cccccccccccccccccxxxlccccccccccc",
"ccccccccccg ..X     +cjccccccccc",
"ccccccccj o>***===--% Oxhccccccc",
"cccccck O-*==========>& Occccccc",
"cccccj =&==============>*.zccccc",
"cccczX=====<69pdd========*Xjcccc",
"cccc.*===:7sfffff=====:==== lccc",
"cchO*===1tffq53;;=========== ccc",
"ccx >==1ifu4===============&Ojcc",
"cjO&==:tfr<==============:==- cc",
"cc >==7fu<==================*ogc",
"l+%==<sf4=================<==> c",
"x -==6fq=====================*.c",
"x -==9f5=====================*.c",
"x ===pf3=====================*Xc",
"c ===df;====================== c",
"c ===df;================;fd=== c",
"cX*==pf3================3fp=== x",
"c.*==9f5================5f9==- x",
"c.*==6f0================0f6==- x",
"c >==<sf4==============4fs<==%+l",
"cgo*==8fu<============,uf8==> cc",
"cc -==:yfe<==========,wfy:==&Ojc",
"ccjO&==1pfu4========4ufa2==> xcc",
"ccc ====1yffq53;;350ffy2===*Ohcc",
"ccck#====:7sffffffffs8:===*.cccc",
"ccccj$*====<69pddp96<=====Xzcccc",
"cccccz@*>==============&= jccccc",
"cccccccO &>==========*-O kcccccc",
"ccccccchxO %--===***>o jcccccccc",
"cccccccccjc+     X.. gcccccccccc",
"ccccccccccclxxxccccccccccccccccc"
};
