/* XPM */
static char *result[] = {
/* columns rows colors chars-per-pixel */
"32 32 25 1 ",
"  c black",
". c #000101",
"X c #010101",
"o c #040202",
"O c #050303",
"+ c #060505",
"@ c #02030A",
"# c #01010F",
"$ c #02020E",
"% c #A70000",
"& c #A80000",
"* c #A90000",
"= c #A90100",
"- c #AA0000",
"; c #AB0000",
": c #AA0100",
"> c #AC0000",
", c #F7F7F8",
"< c #FAFAF9",
"1 c #FBFBFB",
"2 c #FCFCFB",
"3 c gray99",
"4 c #FDFDFD",
"5 c #FEFEFE",
"6 c white",
/* pixels */
"66666666666666666555366666666666",
"6666666666, ..X     +61666666666",
"666666661 o>***---;;% O5<6666666",
"6666662 O;*---------->& O6666666",
"666661 -&-------------->*.466666",
"66664X------------=------*X16666",
"6666.*--------------------- 3666",
"66<O*----------------------- 666",
"665 >----:-----------------&O166",
"61O&-----:------------------; 66",
"66 >------------------------*o,6",
"3+%--------------------------> 6",
"5 ;--------------------------*.6",
"5 ;--------------------------*.6",
"5 ---------------------------*X6",
"6 ---------------------------- 6",
"6 ---------------------------- 6",
"6X*--------------------------- 5",
"6.*--------------------------; 5",
"6.*--------------------------; 5",
"6 >--------------------------%+3",
"6,o*------------------------> 66",
"66 ;------------------------&O16",
"661O&----------------------> 566",
"666 -----------------------*O<66",
"6662#---------------------*.6666",
"66661$*-------------------X46666",
"666664@*>--------------&- 166666",
"6666666O &>----------*;O 2666666",
"6666666<5O %;;---***>o 166666666",
"66666666616+     X.. ,6666666666",
"66666666666355566666666666666666"
};
