/* XPM */
static char *result[] = {
/* columns rows colors chars-per-pixel */
"32 32 42 1 ",
"  c black",
". c #000101",
"X c #010101",
"o c #040202",
"O c #050303",
"+ c #060505",
"@ c #02030A",
"# c #01010F",
"$ c #02020E",
"% c #A70000",
"& c #A80000",
"* c #A90000",
"= c #AA0000",
"- c #AB0000",
"; c #AB0101",
": c #AB0202",
"> c #AC0000",
", c #AD0404",
"< c #AE0606",
"1 c #B00909",
"2 c #B51010",
"3 c #BC1A1A",
"4 c #BD1B1B",
"5 c #BF1F1F",
"6 c #CA2F2F",
"7 c #CB3131",
"8 c #CC3332",
"9 c #CE3434",
"0 c #D13939",
"q c #D23A3A",
"w c #D23B3B",
"e c #D53F3F",
"r c #D64141",
"t c #D84343",
"y c #F7F7F8",
"u c #FAFAF9",
"i c #FBFBFB",
"p c #FCFCFB",
"a c gray99",
"s c #FDFDFD",
"d c #FEFEFE",
"f c white",
/* pixels */
"fffffffffffffffffdddafffffffffff",
"ffffffffffy ..X     +fifffffffff",
"ffffffffi o>***===--% Odufffffff",
"ffffffp O-*==========>& Offfffff",
"fffffi =&==============>*.sfffff",
"ffffsX=====,46wrr===,====*Xiffff",
"ffff.*===:5ettttt=====:==== afff",
"ffuO*===<9tt731;;1========== fff",
"ffd >==<qt02===============&Oiff",
"fiO&==:9t8,==============:==- ff",
"ff >==5t0,==================*oyf",
"a+%==,et2====================> f",
"d -==4t7=====================*.f",
"d -==6t3=====================*.f",
"d ===wt1=====================*Xf",
"f ===rt;====================== f",
"f ============================ f",
"fX*====1====================== d",
"f.*==========================- d",
"f.*==========================- d",
"f >==,=======================%+a",
"fyo*========================> ff",
"ff -======,=================&Oif",
"ffiO&======================> dff",
"fff ===========;===========*Ouff",
"fffp#=====================*.ffff",
"ffffi$*=============,=====Xsffff",
"fffffs@*>==============&= ifffff",
"fffffffO &>==========*-O pffffff",
"fffffffudO %--===***>o iffffffff",
"fffffffffif+     X.. yffffffffff",
"fffffffffffadddfffffffffffffffff"
};
