/* XPM */
static char *result[] = {
/* columns rows colors chars-per-pixel */
"32 32 48 1 ",
"  c black",
". c #000101",
"X c #010101",
"o c #040202",
"O c #050303",
"+ c #060505",
"@ c #02030A",
"# c #01010F",
"$ c #02020E",
"% c #A70000",
"& c #A80000",
"* c #A90000",
"= c #AA0000",
"- c #AB0000",
"; c #AB0101",
": c #AB0202",
"> c #AC0000",
", c #AC0404",
"< c #AD0404",
"1 c #AE0606",
"2 c #AF0707",
"3 c #B00909",
"4 c #B51010",
"5 c #BC1A1A",
"6 c #BD1B1B",
"7 c #BF1F1F",
"8 c #C02020",
"9 c #C92F2F",
"0 c #CA2F2F",
"q c #CB3030",
"w c #CB3131",
"e c #CC3131",
"r c #CC3232",
"t c #CE3535",
"y c #D13939",
"u c #D23B3B",
"i c #D33B3B",
"p c #D53F3F",
"a c #D64141",
"s c #D84343",
"d c #F7F7F8",
"f c #FAFAF9",
"g c #FBFBFB",
"h c #FCFCFB",
"j c gray99",
"k c #FDFDFD",
"l c #FEFEFE",
"z c white",
/* pixels */
"zzzzzzzzzzzzzzzzzllljzzzzzzzzzzz",
"zzzzzzzzzzd ..X     +zgzzzzzzzzz",
"zzzzzzzzg o>***===--% Olfzzzzzzz",
"zzzzzzh O-*==========>& Ozzzzzzz",
"zzzzzg =&==============>*.kzzzzz",
"zzzzkX=====<===aau96<====*Xgzzzz",
"zzzz.*=========sssssp8:==== jzzz",
"zzfO*===1=====3;;35qsst1==== zzz",
"zzl >==1============4ysu1==&Ogzz",
"zgO&==:===<==========<rst:==- zz",
"zz >==================<ys7==*odz",
"j+%==<=================4sp<==> z",
"l -=====================ws6==*.z",
"l -=====================5s0==*.z",
"l ======================3su==*Xz",
"z ======================;sa=== z",
"z ======================;sa=== z",
"zX*=====================3su=== l",
"z.*=====================5s0==- l",
"z.*=====================qs6==- l",
"z >====================4sp<==%+j",
"zdo*==================,ys8==> zz",
"zz -==:==============,est:==&Ogz",
"zzgO&===============4ysi2==> lzz",
"zzz ==========3=;35qsst2===*Ofzz",
"zzzh#====:======ssssp8:===*.zzzz",
"zzzzg$*=========au06<=====Xkzzzz",
"zzzzzk@*>==============&= gzzzzz",
"zzzzzzzO &>==========*-O hzzzzzz",
"zzzzzzzflO %--===***>o gzzzzzzzz",
"zzzzzzzzzgz+     X.. dzzzzzzzzzz",
"zzzzzzzzzzzjlllzzzzzzzzzzzzzzzzz"
};
