/* XPM */
static char *result[] = {
/* columns rows colors chars-per-pixel */
"32 32 48 1 ",
"  c black",
". c #000101",
"X c #010101",
"o c #040202",
"O c #050303",
"+ c #060505",
"@ c #02030A",
"# c #01010F",
"$ c #02020E",
"% c #A70000",
"& c #A80000",
"* c #A90000",
"= c #AA0000",
"- c #AB0000",
"; c #AB0101",
": c #AB0202",
"> c #AC0000",
", c #AC0404",
"< c #AD0404",
"1 c #AE0606",
"2 c #AF0707",
"3 c #B00909",
"4 c #B51010",
"5 c #BC1A1A",
"6 c #BD1B1B",
"7 c #BF1F1F",
"8 c #C02020",
"9 c #CA2F2F",
"0 c #CB3030",
"q c #CB3131",
"w c #CC3232",
"e c #CC3332",
"r c #CE3434",
"t c #CE3535",
"y c #D13939",
"u c #D23A3A",
"i c #D23B3B",
"p c #D53F3F",
"a c #D64141",
"s c #D84343",
"d c #F7F7F8",
"f c #FAFAF9",
"g c #FBFBFB",
"h c #FCFCFB",
"j c gray99",
"k c #FDFDFD",
"l c #FEFEFE",
"z c white",
/* pixels */
"zzzzzzzzzzzzzzzzzllljzzzzzzzzzzz",
"zzzzzzzzzzd ..X     +zgzzzzzzzzz",
"zzzzzzzzg o>***===--% Olfzzzzzzz",
"zzzzzzh O-*==========>& Ozzzzzzz",
"zzzzzg =&==============>*.kzzzzz",
"zzzzkX=====<69iaa===<====*Xgzzzz",
"zzzz.*===:7psssss=====:==== jzzz",
"zzfO*===1rssq53;;======1==== zzz",
"zzl >==1usy4===============&Ogzz",
"zgO&==:rse<==============:==- zz",
"zz >==7sy<==================*odz",
"j+%==<ps4=================<==> z",
"l -==6sq=====================*.z",
"l -==9s5=====================*.z",
"l ===is3=====================*Xz",
"z ===as;====================== z",
"z ===as;====================== z",
"zX*==is3====================== l",
"z.*==9s5=====================- l",
"z.*==6s0=====================- l",
"z >==<ps4====================%+j",
"zdo*==8sy<==================> zz",
"zz -==:tsw<==========,===:==&Ogz",
"zzgO&==1isy4============2==> lzz",
"zzz ====1tssq53;=======2===*Ofzz",
"zzzh#====:7pssss==========*.zzzz",
"zzzzg$*====<69ia==========Xkzzzz",
"zzzzzk@*>==============&= gzzzzz",
"zzzzzzzO &>==========*-O hzzzzzz",
"zzzzzzzflO %--===***>o gzzzzzzzz",
"zzzzzzzzzgz+     X.. dzzzzzzzzzz",
"zzzzzzzzzzzjlllzzzzzzzzzzzzzzzzz"
};
