/* XPM */
static char *result[] = {
/* columns rows colors chars-per-pixel */
"32 32 6 1 ",
"  c #0A0000",
". c #220000",
"X c #04FF00",
"o c #FF8419",
"O c #FFC300",
"+ c white",
/* pixels */
"++++++++++++++++++++++++++++++++",
"+ ............................ +",
"+.ooooooOOOOOOOOOOOOOOOOoooooo.+",
"+.ooooooOOOOOOOOOOOOOOOOoooooo.+",
"+.oooooooooooooOOooooooooooooo.+",
"+.oooooooooooooOOooooooooooooo.+",
"+.oooooooooooooOOooooooooooooo.+",
"+.OOoooooooooooOOooooooooooooo.+",
"+.OOoooooooooooOOoooooooooooOO.+",
"+.OOoooooooooooOOoooooooooooOO.+",
"+.OOoooooooooOOOOOOoooooooooOO.+",
"+.OOooooooooOOOOOOOOooooooooOO.+",
"+.OOoooooooOOOOOOOOOOoooooooOO.+",
"+.OOooooooOOOOOOOOOOOOooooooOO.+",
"+.OOooooooOOOOOOOOOOOOooooooOO.+",
"+.OOOOOOOOOOOOOXXOOOOOOOOOOOOO.+",
"+.OOOOOOOOOOOOOXXOOOOOOOOOOOOO.+",
"+.OOooooooOOOOOOOOOOOOooooooOO.+",
"+.OOooooooOOOOOOOOOOOOooooooOO.+",
"+.OOoooooooOOOOOOOOOOoooooooOO.+",
"+.OOooooooooOOOOOOOOooooooooOO.+",
"+.OOoooooooooOOOOOOoooooooooOO.+",
"+.OOoooooooooooOOoooooooooooOO.+",
"+.OOoooooooooooOOoooooooooooOO.+",
"+.oooooooooooooOOooooooooooooo.+",
"+.oooooooooooooOOooooooooooooo.+",
"+.oooooooooooooOOooooooooooooo.+",
"+.oooooooooooooOOooooooooooooo.+",
"+.ooooooOOOOOOOOOOOOOOOOoooooo.+",
"+.ooooooOOOOOOOOOOOOOOOOoooooo.+",
"+ ............................ +",
"++++++++++++++++++++++++++++++++"
};
