/* XPM */
static char *result[] = {
/* columns rows colors chars-per-pixel */
"32 32 6 1 ",
"  c #0A0000",
". c #220000",
"X c #04FF00",
"o c #FF8419",
"O c #FFC300",
"+ c white",
/* pixels */
"++++++++++++++++++++++++++++++++",
"+ ............................ +",
"+.OOOOOOOOOOOOOOOOOOOOOOOOOOOO.+",
"+.OOOOOOOOOOOOOOOOOOOOOOOOOOOO.+",
"+.OOoOoOoOoOoOoOOoOoOoOoOoOoOO.+",
"+.OOOOOOOOOOOOOOOOOOOOOOOOOOOO.+",
"+.OOoOoOoOoOoOoOOoOoOoOoOoOoOO.+",
"+.OOOOOOOOOOOOOOOOOOOOOOOOOOOO.+",
"+.OOoOoOoOoOoOoOOoOoOoOoOoOoOO.+",
"+.OOOOOOOOOOOOOOOOOOOOOOOOOOOO.+",
"+.OOoOoOoOoOoOOOOOOoOoOoOoOoOO.+",
"+.OOOOOOOOOOOOOOOOOOOOOOOOOOOO.+",
"+.OOoOoOoOoOOOOOOOOOOoOoOoOoOO.+",
"+.OOOOOOOOOOOOOOOOOOOOOOOOOOOO.+",
"+.OOoOoOoOOOOOOOOOOOOOOoOoOoOO.+",
"+.OOOOOOOOOOOOOXXOOOOOOOOOOOOO.+",
"+.OOOOOOOOOOOOOXXOOOOOOOOOOOOO.+",
"+.OOoOoOoOOOOOOOOOOOOOOoOoOoOO.+",
"+.OOOOOOOOOOOOOOOOOOOOOOOOOOOO.+",
"+.OOoOoOoOoOOOOOOOOOOoOoOoOoOO.+",
"+.OOOOOOOOOOOOOOOOOOOOOOOOOOOO.+",
"+.OOoOoOoOoOoOOOOOOoOoOoOoOoOO.+",
"+.OOOOOOOOOOOOOOOOOOOOOOOOOOOO.+",
"+.OOoOoOoOoOoOoOOoOoOoOoOoOoOO.+",
"+.OOOOOOOOOOOOOOOOOOOOOOOOOOOO.+",
"+.OOoOoOoOoOoOoOOoOoOoOoOoOoOO.+",
"+.OOOOOOOOOOOOOOOOOOOOOOOOOOOO.+",
"+.OOoOoOoOoOoOoOOoOoOoOoOoOoOO.+",
"+.OOOOOOOOOOOOOOOOOOOOOOOOOOOO.+",
"+.OOOOOOOOOOOOOOOOOOOOOOOOOOOO.+",
"+ ............................ +",
"++++++++++++++++++++++++++++++++"
};
