/* XPM */
static char *a3c34b7d870f452a898e61953b4ae4bas0icOq3GBodsfmhz[] = {
/* columns rows colors chars-per-pixel */
"32 32 2 1 ",
"  c black",
". c #04FF00",
/* pixels */
"................................",
". ..  ...   ...   .   ...  .. ..",
". ............................ .",
".............................. .",
"................................",
". ..............................",
". ..............................",
".............................. .",
". ..............................",
". ..............................",
"................................",
". ............................ .",
". ............................ .",
". ............................ .",
"................................",
"................................",
". ............................ .",
"................................",
".............................. .",
". ............................ .",
". ............................ .",
". ..............................",
". ............................ .",
". ............................ .",
"................................",
". ..............................",
". ............................ .",
".............................. .",
". ..............................",
". ............................ .",
".. .   ..  .  ...    ... ...  ..",
"................................"
};
