/* XPM */
static char *result[] = {
/* columns rows colors chars-per-pixel */
"32 32 6 1 ",
"  c #0A0000",
". c #220000",
"X c red",
"o c #FF8419",
"O c #FFC300",
"+ c white",
/* pixels */
"++++++++++++++++++++++++++++++++",
"+ ............................ +",
"+.XXXXXXXXXXXXXXXXXXXXXXXXXXXX.+",
"+.XXXXXXXXXXXXXXXXXXXXXXXXXXXX.+",
"+.XXXXXXXXXXXXXXXXXXXXXXXXXXXX.+",
"+.XXXXXXXXXXXXXXXXXXXXXXXXXXXX.+",
"+.XXXXXXXXXXXXXXXXXXXXXXXXXXXX.+",
"+.XXXXXXXXXXXXXXXXXXXXXXXXXXXX.+",
"+.XXXXXXXXXXXXXXXXXXXXXXXXXXXX.+",
"+.XXXXXXXXXXXXXXXXXXXXXXXXXXXX.+",
"+.XXXXXXXXXXXXXooXXXXXXXXXXXXX.+",
"+.XXXXXXXXXXXooooooXXXXXXXXXXX.+",
"+.XXXXXXXXXXooooooooXXXXXXXXXX.+",
"+.XXXXXXXXXooooOOooooXXXXXXXXX.+",
"+.XXXXXXXXXoooOOOOoooXXXXXXXXX.+",
"+.XXXXXXXXoooOOOOOOoooXXXXXXXX.+",
"+.XXXXXXXXoooOOOOOOoooXXXXXXXX.+",
"+.XXXXXXXXXoooOOOOoooXXXXXXXXX.+",
"+.XXXXXXXXXooooOOooooXXXXXXXXX.+",
"+.XXXXXXXXXXooooooooXXXXXXXXXX.+",
"+.XXXXXXXXXXXooooooXXXXXXXXXXX.+",
"+.XXXXXXXXXXXXXooXXXXXXXXXXXXX.+",
"+.XXXXXXXXXXXXXXXXXXXXXXXXXXXX.+",
"+.XXXXXXXXXXXXXXXXXXXXXXXXXXXX.+",
"+.XXXXXXXXXXXXXXXXXXXXXXXXXXXX.+",
"+.XXXXXXXXXXXXXXXXXXXXXXXXXXXX.+",
"+.XXXXXXXXXXXXXXXXXXXXXXXXXXXX.+",
"+.XXXXXXXXXXXXXXXXXXXXXXXXXXXX.+",
"+.XXXXXXXXXXXXXXXXXXXXXXXXXXXX.+",
"+.XXXXXXXXXXXXXXXXXXXXXXXXXXXX.+",
"+ ............................ +",
"++++++++++++++++++++++++++++++++"
};
