/* XPM */
static char *result[] = {
/* columns rows colors chars-per-pixel */
"32 32 7 1 ",
"  c #0A0000",
". c #220000",
"X c red",
"o c #04FF00",
"O c #FF8419",
"+ c #FFC300",
"@ c white",
/* pixels */
"@@@@@@@@@@@@@@@@@@@@@@@@@@@@@@@@",
"@ ............................ @",
"@.XXXXXXXXXXXXXXXXXXXXXXXXXXXX.@",
"@.XXXXXXXXXXXXXXXXXXXXXXXXXXXX.@",
"@.XXXXXXXXXXXXXXXXXXXXXXXXXXXX.@",
"@.XXXXXXXXXXOOOOOOOOXXXXXXXXXX.@",
"@.XXXXXXXXOOOOOOOOOOOOXXXXXXXX.@",
"@.XXXXXXXOOOOOOOOOOOOOOXXXXXXX.@",
"@.XXXXXXOOOOOOOOOOOOOOOOXXXXXX.@",
"@.XXXXXOOOOOOOOOOOOOOOOOOXXXXX.@",
"@.XXXXOOOOOOO++++++OOOOOOOXXXX.@",
"@.XXXXOOOOOO++++++++OOOOOOXXXX.@",
"@.XXXOOOOOO++++++++++OOOOOOXXX.@",
"@.XXXOOOOO++++++++++++OOOOOXXX.@",
"@.XXXOOOOO++++++++++++OOOOOXXX.@",
"@.XXXOOOOO+++++oo+++++OOOOOXXX.@",
"@.XXXOOOOO+++++oo+++++OOOOOXXX.@",
"@.XXXOOOOO++++++++++++OOOOOXXX.@",
"@.XXXOOOOO++++++++++++OOOOOXXX.@",
"@.XXXOOOOOO++++++++++OOOOOOXXX.@",
"@.XXXXOOOOOO++++++++OOOOOOXXXX.@",
"@.XXXXOOOOOOO++++++OOOOOOOXXXX.@",
"@.XXXXXOOOOOOOOOOOOOOOOOOXXXXX.@",
"@.XXXXXXOOOOOOOOOOOOOOOOXXXXXX.@",
"@.XXXXXXXOOOOOOOOOOOOOOXXXXXXX.@",
"@.XXXXXXXXOOOOOOOOOOOOXXXXXXXX.@",
"@.XXXXXXXXXXOOOOOOOOXXXXXXXXXX.@",
"@.XXXXXXXXXXXXXXXXXXXXXXXXXXXX.@",
"@.XXXXXXXXXXXXXXXXXXXXXXXXXXXX.@",
"@.XXXXXXXXXXXXXXXXXXXXXXXXXXXX.@",
"@ ............................ @",
"@@@@@@@@@@@@@@@@@@@@@@@@@@@@@@@@"
};
