/* XPM */
static char *f78236e227f74cafb73f6bd42e695e41xiHd26fLLSlj6GoP[] = {
/* columns rows colors chars-per-pixel */
"32 32 10 1 ",
"  c None",
". c #1A1E19",
"X c gray13",
"o c gray19",
"O c gray25",
"+ c #686868",
"@ c #54D854",
"# c #FFF67F",
"$ c gray75",
"% c gray86",
/* pixels */
"                                ",
"  %%%%%%%%%%%%%%%%%%%%%%%%%%%%  ",
"  %@%@%@@@%@%%%@%@%%@%%@@@%%@%  ",
"  $@@%%@%%%@%%%@%@%@%@%@%@%@@@  ",
"  $@$%%@@@%@%%%@%@%@@@%@@@%%@%  ",
"  $@@$$@$$%@%%%@%@%@%@%@@%%@%@  ",
"  $@$@$@@@$@@@$@@@$@$@$@$@$@$@  ",
"  $$$$$$$$$$$$$$$$$$$$$$$$$$$$  ",
"                                ",
"  ...........................X  ",
"  XOOOOOOOOOOOOOOOOOOOOOOOOOOX  ",
"  XOOOOOOOOOOOOOOOOOOOOOOOOOOX  ",
"  XOOOOOOOOOOOOOOOOOOOOOOOOOOX  ",
"  XOOOOOOOOOOOOOOOOOOOOOOOOOOX  ",
"  XOOOOOOOOOOOOOOOOOOOOOOOOOOX  ",
"  XOOOOOOOOOOOOOOOOOOOOOOOOOOX  ",
"  XoOOOOOOOOOOOOOOOOOOOOOOOOOX  ",
"  XoOOOOOOOOOOOOOOOOOOOOOOOOOX  ",
"  XooOOOOOOOOOOOOOOOOOOOOOOOOX  ",
"  XooOOOOOOOOOOOOOOOOOOOOOOOOX  ",
"  XoooOOOOOOOOOOOOOOOOOOO++OOX  ",
"  XooooOOOOOOOOOOOOOOOOO+##+OX  ",
"  XoooooooooOOOOOOOOOOOO+##+OX  ",
"  XooooooooooooOOOOOOOOOO++OoX  ",
"  XooooooooooooooooooooooooooX  ",
"  XooooooooooooooooooooooooooX  ",
"  XooooooooooooooooooooooooooX  ",
"  XooooooooooooooooooooooooooX  ",
"  XooooooooooooooooooooooooooX  ",
"  XooooooooooooooooooooooooooX  ",
"  XooooooooooooooooooooooooooX  ",
"  XooooooooooooooooooooooooooX  "
};
