/* XPM */
static char *result[] = {
/* columns rows colors chars-per-pixel */
"32 32 7 1 ",
"  c #0A0000",
". c #220000",
"X c red",
"o c #04FF00",
"O c #FF8419",
"+ c #FFC300",
"@ c white",
/* pixels */
"@@@@@@@@@@@@@@@@@@@@@@@@@@@@@@@@",
"@ ............................ @",
"@.XXXXXXOOOOOOOOOOOOOOOOXXXXXX.@",
"@.XXXXOOOOOOOOOOOOOOOOOOOOXXXX.@",
"@.XXXOOOOOOOOOOOOOOOOOOOOOOXXX.@",
"@.XXOOOOOOOOOOOOOOOOOOOOOOOOXX.@",
"@.XOOOOOOOOOOOOOOOOOOOOOOOOOOX.@",
"@.XOOOOOOOOOOOOOOOOOOOOOOOOOOX.@",
"@.OOOOOOOOOOOOO++OOOOOOOOOOOOO.@",
"@.OOOOOOOOOOOOO++OOOOOOOOOOOOO.@",
"@.OOOOOOOOOOO++++++OOOOOOOOOOO.@",
"@.OOOOOOOOOO++++++++OOOOOOOOOO.@",
"@.OOOOOOOOO++++++++++OOOOOOOOO.@",
"@.OOOOOOOO++++++++++++OOOOOOOO.@",
"@.OOOOOOOO++++++++++++OOOOOOOO.@",
"@.OOOOOO+++++++oo+++++++OOOOOO.@",
"@.OOOOOO+++++++oo+++++++OOOOOO.@",
"@.OOOOOOOO++++++++++++OOOOOOOO.@",
"@.OOOOOOOO++++++++++++OOOOOOOO.@",
"@.OOOOOOOOO++++++++++OOOOOOOOO.@",
"@.OOOOOOOOOO++++++++OOOOOOOOOO.@",
"@.OOOOOOOOOOO++++++OOOOOOOOOOO.@",
"@.OOOOOOOOOOOOO++OOOOOOOOOOOOO.@",
"@.OOOOOOOOOOOOO++OOOOOOOOOOOOO.@",
"@.XOOOOOOOOOOOOOOOOOOOOOOOOOOX.@",
"@.XOOOOOOOOOOOOOOOOOOOOOOOOOOX.@",
"@.XXOOOOOOOOOOOOOOOOOOOOOOOOXX.@",
"@.XXXOOOOOOOOOOOOOOOOOOOOOOXXX.@",
"@.XXXXOOOOOOOOOOOOOOOOOOOOXXXX.@",
"@.XXXXXXOOOOOOOOOOOOOOOOXXXXXX.@",
"@ ............................ @",
"@@@@@@@@@@@@@@@@@@@@@@@@@@@@@@@@"
};
