/* XPM */
static char *result[] = {
/* columns rows colors chars-per-pixel */
"32 32 6 1 ",
"  c #0A0000",
". c #220000",
"X c #04FF00",
"o c #FF8419",
"O c #FFC300",
"+ c white",
/* pixels */
"++++++++++++++++++++++++++++++++",
"+ ............................ +",
"+.OOOOOOOOOOOOOOOOOOOOOOOOOOOO.+",
"+.OOOOOOOOOOOOOOOOOOOOOOOOOOOO.+",
"+.OOoooooooooooOOoooooooooooOO.+",
"+.OOoooooooooOOOOOOoooooooooOO.+",
"+.OOoooooooooooOOoooooooooooOO.+",
"+.OOoooooooOOOOOOOOOOoooooooOO.+",
"+.OOoooooooooooOOoooooooooooOO.+",
"+.OOooooooOOOOOOOOOOOOooooooOO.+",
"+.OOoooooooooOOOOOOoooooooooOO.+",
"+.OOooooOOOOOOOOOOOOOOOOooooOO.+",
"+.OOoooooooOOOOOOOOOOoooooooOO.+",
"+.OOooOOOOOOOOOOOOOOOOOOOOooOO.+",
"+.OOooooooOOOOOOOOOOOOooooooOO.+",
"+.OOOOOOOOOOOOOXXOOOOOOOOOOOOO.+",
"+.OOOOOOOOOOOOOXXOOOOOOOOOOOOO.+",
"+.OOooooooOOOOOOOOOOOOooooooOO.+",
"+.OOooOOOOOOOOOOOOOOOOOOOOooOO.+",
"+.OOoooooooOOOOOOOOOOoooooooOO.+",
"+.OOooooOOOOOOOOOOOOOOOOooooOO.+",
"+.OOoooooooooOOOOOOoooooooooOO.+",
"+.OOooooooOOOOOOOOOOOOooooooOO.+",
"+.OOoooooooooooOOoooooooooooOO.+",
"+.OOoooooooOOOOOOOOOOoooooooOO.+",
"+.OOoooooooooooOOoooooooooooOO.+",
"+.OOoooooooooOOOOOOoooooooooOO.+",
"+.OOoooooooooooOOoooooooooooOO.+",
"+.OOOOOOOOOOOOOOOOOOOOOOOOOOOO.+",
"+.OOOOOOOOOOOOOOOOOOOOOOOOOOOO.+",
"+ ............................ +",
"++++++++++++++++++++++++++++++++"
};
