/* XPM */
static char *result[] = {
/* columns rows colors chars-per-pixel */
"32 32 6 1 ",
"  c #0A0000",
". c #220000",
"X c #04FF00",
"o c #FF8419",
"O c #FFC300",
"+ c white",
/* pixels */
"++++++++++++++++++++++++++++++++",
"+ ............................ +",
"+.ooooooooooOOOOOOOOoooooooooo.+",
"+.ooooooooooOOOOOOOOoooooooooo.+",
"+.oooooooooooooOOooooooooooooo.+",
"+.oooooooooooooOOooooooooooooo.+",
"+.oooooooooooooOOooooooooooooo.+",
"+.oooooooooooooOOooooooooooooo.+",
"+.oooooooooooooOOooooooooooooo.+",
"+.oooooooooooooOOooooooooooooo.+",
"+.oooooooooooOOOOOOooooooooooo.+",
"+.ooooooooooOOOOOOOOoooooooooo.+",
"+.OOoooooooOOOOOOOOOOoooooooOO.+",
"+.OOooooooOOOOOOOOOOOOooooooOO.+",
"+.OOooooooOOOOOOOOOOOOooooooOO.+",
"+.OOOOOOOOOOOOOXXOOOOOOOOOOOOO.+",
"+.OOOOOOOOOOOOOXXOOOOOOOOOOOOO.+",
"+.OOooooooOOOOOOOOOOOOooooooOO.+",
"+.OOooooooOOOOOOOOOOOOooooooOO.+",
"+.OOoooooooOOOOOOOOOOoooooooOO.+",
"+.ooooooooooOOOOOOOOoooooooooo.+",
"+.oooooooooooOOOOOOooooooooooo.+",
"+.oooooooooooooOOooooooooooooo.+",
"+.oooooooooooooOOooooooooooooo.+",
"+.oooooooooooooOOooooooooooooo.+",
"+.oooooooooooooOOooooooooooooo.+",
"+.oooooooooooooOOooooooooooooo.+",
"+.oooooooooooooOOooooooooooooo.+",
"+.ooooooooooOOOOOOOOoooooooooo.+",
"+.ooooooooooOOOOOOOOoooooooooo.+",
"+ ............................ +",
"++++++++++++++++++++++++++++++++"
};
