/* XPM */
static char *_85440ae8e1646d8d5c2601145921555Q1NLCHhXTyfW3dfh[] = {
/* columns rows colors chars-per-pixel */
"32 32 51 1 ",
"  c #00000D",
". c #020111",
"X c #030410",
"o c #060716",
"O c #090912",
"+ c #090917",
"@ c #0C0D20",
"# c #00042A",
"$ c #00042C",
"% c #00082E",
"& c #040B2D",
"* c #060C2D",
"= c #101126",
"- c #14142E",
"; c #080E30",
": c #00053F",
"> c #0C1746",
", c #101C54",
"< c #07239E",
"1 c #0A26A5",
"2 c #0A28A7",
"3 c #0926A8",
"4 c #0F2FBF",
"5 c #0F30BA",
"6 c #0C2EC2",
"7 c #0C2EC5",
"8 c #0F31C2",
"9 c #0F30C6",
"0 c #0D32D3",
"q c #0D32D6",
"w c #0D37FF",
"e c #0F3EFB",
"r c #0F3BFF",
"t c #0E3DFC",
"y c #103FFE",
"u c #1242F9",
"i c #1140FD",
"p c #3E99AB",
"a c #3F9CA8",
"s c #3D99AF",
"d c #3B93B1",
"f c #419FA9",
"g c #42A2A6",
"h c #4BBBD5",
"j c #4CBED4",
"k c #4EC1D3",
"l c #4FC4D2",
"z c #4FC2D4",
"x c #50C5D2",
"c c #51C8D1",
"v c white",
/* pixels */
"vvvvvvvvvvvvvvvvvvvvvvvvvvvvvvvv",
"vvvvvvvvvvv.;**&%%%#-vvvvvvvvvvv",
"vvvvvvvvv >qtrtttttt7#=vvvvvvvvv",
"vvvvvvv.,9trrrrrrrrrtt4:@vvvvvvv",
"vvvvvvo3etrrrrrrrrrrrrti<+vvvvvv",
"vvvvvo1yrrrrrrrrrrrrrrrry1ovvvvv",
"vvvvO1yrrrrrrrrrrrrrrrrrry2Xvvvv",
"vvv@<yrrrrrrrrrrrrrrrrrrrry1.vvv",
"vvv:irrrrrrrrrrrrrrrrrrrrrre,vvv",
"vv=5twwwwwrrrrrrrrrrrrrrrrrt8 vv",
"vv$tyshhhhrrrrrrrrrrrrrrrrrrt>vv",
"v-6ryfzkkjrrrrrrrrrrrrrrrrrrr0.v",
"v#trygxxxkrrrrrrrrrrrrrrrrrrrt;v",
"v%trruiiiirrrrrrrrrrrrrrrrrrrr*v",
"v%trrrrrrrrrrrrrrrrrrrrrrrrrrt*v",
"v%trrrrrrrrrrrrrrrrrrrrrrrrrrt&v",
"v&trrrrrrrrrrrrrrrrrrrrrrrrrrt%v",
"v*trrrrrrrrrrrrrrrrrrrrrrrrrrt%v",
"v*rrrwwwwwrrrrrrrrrrrrrrrrrrrt%v",
"v;trrdhhhjyrrrrrrrrrrrrrrrrrrt#v",
"v.0rrpkkklyrrrrrrrrrrrrrrrrrt6-v",
"vv>traxxxcyrrrrrrrrrrrrrrrrrt$vv",
"vv 8ruiiiirrrrrrrrrrrrrrrrrt5=vv",
"vvv,errrrrrrrrrrrrrrrrrrrrri:vvv",
"vvv.1yrrrrrrrrrrrrrrrrrrrry<@vvv",
"vvvvX2yrrrrrrrrrrrrrrrrrry1Ovvvv",
"vvvvvo1yrrrrrrrrrrrrrrrry1ovvvvv",
"vvvvvv+<itrrrrrrrrrrrrte3ovvvvvv",
"vvvvvvv@:4ttrrrrrrrrrt9,.vvvvvvv",
"vvvvvvvvv=#7ttttttrtq> vvvvvvvvv",
"vvvvvvvvvvv-#%%%&**;.vvvvvvvvvvv",
"vvvvvvvvvvvvvvvvvvvvvvvvvvvvvvvv"
};
