/* XPM */
static char *f66f4832ccc84b1bac7641c6ab69685f7fSFJnleS5OP12QU[] = {
/* columns rows colors chars-per-pixel */
"32 32 39 1 ",
"  c #020209",
". c #00000C",
"X c #000010",
"o c #030314",
"O c #05051F",
"+ c #050520",
"@ c #030A2D",
"# c #040B2E",
"$ c #020B35",
"% c #08113C",
"& c #020D42",
"* c #050D45",
"= c #08134A",
"- c #0B134C",
"; c #0927A4",
": c #0A27A9",
"> c #0C2AA9",
", c #1032BE",
"< c #0D30CA",
"1 c #0D30CD",
"2 c #1032C1",
"3 c #1031C6",
"4 c #0D31D3",
"5 c #0F3BFF",
"6 c #0F3EFE",
"7 c #103FFF",
"8 c #1040FF",
"9 c #3F9BAA",
"0 c #3F9DAA",
"q c #3E99AC",
"w c #3F9CAC",
"e c #409FA8",
"r c #4EBFD3",
"t c #4DBED4",
"y c #4FC2D3",
"u c #4FC4D2",
"i c #4DC0D4",
"p c #FBFBFB",
"a c white",
/* pixels */
"aaaaaaaaaaaaaaaaaaaaaaaaaaaaaaaa",
"aaaaaaaaaapo##@@@@@@+aaaaaaaaaaa",
"aaaaaaaaaX%4666666661$oapaaaaaaa",
"aaaaaaaX=36555555555562&oaaaaaaa",
"aaaaaa.:8655555555555568;.aaaaaa",
"aaaaa.>755555555555555557>.aaaaa",
"aaaa >75555555555555555557> aaaa",
"aapo;7555555555555555555557:.aaa",
"aaa*855555555555555555555558-aaa",
"aao,6555555555555555556677762Xaa",
"aa$6555555555555555556uyyy056%pa",
"a+<5555555555555555556yyyy9554oa",
"a@65555555555555555556yrrrq556#a",
"a@6555555555555555555555555556#a",
"a@6555555555555555555555555556@a",
"a@6555555555555555555555555556@a",
"a@6555555555555555555555555556@a",
"a@6555555555555555555555555556@a",
"a#6555555555555555555566777556@a",
"a#65555555555555555555yyyye556@a",
"ao45555555555555555555ryyy055<Oa",
"ap%6555555555555555555trriw66$aa",
"aaX2655555555555555555555556,oaa",
"aaa-855555555555555555555558*aaa",
"aaa.:7555555555555555555557;opaa",
"aaaa >75555555555555555557> aaaa",
"aaaaa.>755555555555555557>.aaaaa",
"aaaaaa.;8655555555555568:.aaaaaa",
"aaaaaaao&26555555555563=Xaaaaaaa",
"aaaaaaapao$1666666664%Xaaaaaaaaa",
"aaaaaaaaaaa+@@@@@@##opaaaaaaaaaa",
"aaaaaaaaaaaaaaaaaaaaaaaaaaaaaaaa"
};
