/* XPM */
static char *_a2b9067bcf4463cb70c5437c5ee6688BCd1eeO0cQlnCoFN[] = {
/* columns rows colors chars-per-pixel */
"32 32 22 1 ",
"  c #000008",
". c #00000D",
"X c #000012",
"o c #000019",
"O c #030A2E",
"+ c #040E37",
"@ c #050E38",
"# c #051046",
"$ c #081049",
"% c #0A27A7",
"& c #0C29A9",
"* c #0D31CD",
"= c #1032C0",
"- c #1031C5",
"; c #0D31D0",
": c #0F3BFF",
"> c #0F3EFF",
", c #103FFF",
"< c #1040FF",
"1 c #3F9CAA",
"2 c #4EC1D3",
"3 c white",
/* pixels */
"33333333333333333333333333333333",
"33333333333oOOOOOOOOo33333333333",
"333333333X@*>>>>>>>>*@X333333333",
"3333333X$=>::::::::::>=$X3333333",
"333333 %<>::::::::::::><% 333333",
"33333.&,::111::::::111::,&.33333",
"3333.&,:::222::::::222:::,&.3333",
"333X%,::::222::::::222::::,%X333",
"333#<:::::222::::::222:::::<#333",
"33X->:::::222::::::222:::::>-X33",
"33+>::::::::::::::::::::::::>+33",
"3o;::::::::::::::::::::::::::;o3",
"3O>::::::::::::::::::::::::::>O3",
"3O>::::::::::::::::::::::::::>O3",
"3O>::::::::::::::::::::::::::>O3",
"3O>::::::::::::::::::::::::::>O3",
"3O>::::::::::::::::::::::::::>O3",
"3O>::::::::::::::::::::::::::>O3",
"3O>::::::::::::::::::::::::::>O3",
"3O>::::::::::::::::::::::::::>O3",
"3o;::::::::::::::::::::::::::;o3",
"33+>::::::::::::::::::::::::>+33",
"33X->::::::::::::::::::::::>-X33",
"333#<::::::::::::::::::::::<#333",
"333X%,::::::::::::::::::::,%X333",
"3333.&,::::::::::::::::::,&.3333",
"33333.&,::::::::::::::::,&.33333",
"333333 %<>::::::::::::><% 333333",
"3333333X$=>::::::::::>=$X3333333",
"333333333X@*>>>>>>>>*@X333333333",
"33333333333oOOOOOOOOo33333333333",
"33333333333333333333333333333333"
};
