/* XPM */
static char *db1f2fd74bea4dc3f2e1f10fff7f673eNm6YBNC5mMkhe9VY[] = {
/* columns rows colors chars-per-pixel */
"32 32 30 1 ",
"  c #01010A",
". c #01010D",
"X c #010211",
"o c #020215",
"O c #03031A",
"+ c #02021C",
"@ c #03041D",
"# c #030A2D",
"$ c #030D38",
"% c #060F3A",
"& c #040F44",
"* c #061047",
"= c #091049",
"- c #0A27A6",
"; c #0A27A8",
": c #0C29A9",
"> c #1032BF",
", c #0D30CE",
"< c #1032C0",
"1 c #1031C4",
"2 c #0D30D1",
"3 c #0F3BFF",
"4 c #0F3EFE",
"5 c #103FFF",
"6 c #1040FF",
"7 c #3F9BAB",
"8 c #3F9CAB",
"9 c #4EBFD3",
"0 c #4EC1D3",
"q c white",
/* pixels */
"qqqqqqqqqqqqqqqqqqqqqqqqqqqqqqqq",
"qqqqqqqqqqqO########+qqqqqqqqqqq",
"qqqqqqqqqX%,44444444,%oqqqqqqqqq",
"qqqqqqqX=<433333333334>&Xqqqqqqq",
"qqqqqq -6433333333333346- qqqqqq",
"qqqqq.:533333333333333335:.qqqqq",
"qqqq.:53333333333333333335:.qqqq",
"qqqo-5333333333333333333335;Xqqq",
"qqq&633333333333333333333336*qqq",
"qqo14333333333333333333333341Xqq",
"qq%43333333333333333333333334%qq",
"q@,333333333333333333333333332Oq",
"q#4333333333333333333333333334#q",
"q#4333333333333333333333333334#q",
"q#4333333333333333333333333334#q",
"q#4333333333333333333333333334#q",
"q#4333333333333333333333333334#q",
"q#4333333333333333333333333334#q",
"q#4333333333333333333333333334#q",
"q#4333333333333333333333333334#q",
"qO233333333333333333333333333,@q",
"qq%43333333333333333443333334$qq",
"qqX14333330004333330004333341oqq",
"qqq*633333000433333000433336&qqq",
"qqqX;5333390043333390043335-oqqq",
"qqqq.:53330004333330004335:.qqqq",
"qqqqq.:533888433333787435:.qqqqq",
"qqqqqq -6433333333333346- qqqqqq",
"qqqqqqqX&>433333333334<=Xqqqqqqq",
"qqqqqqqqqo%,44444444,%Xqqqqqqqqq",
"qqqqqqqqqqq+########Oqqqqqqqqqqq",
"qqqqqqqqqqqqqqqqqqqqqqqqqqqqqqqq"
};
